<svg width="660" height="651" viewBox="0 0 660 651" fill="none" xmlns="http://www.w3.org/2000/svg">
<g id="Group 18">
<path id="Path 3" fill-rule="evenodd" clip-rule="evenodd" d="M302.639 33.3254C226.936 9.63167 149.096 -29.8875 69.4036 42.2949C-10.2886 114.477 -60.3904 177.709 -28.0361 259.522C4.31824 341.336 136.386 290.377 174.758 363.499C213.131 436.621 128.817 502.984 165.167 568.062C201.516 633.14 229.466 674.849 346.282 633.471C463.098 592.092 452.327 486.807 541.16 425.153C629.993 363.499 726.104 271.2 594.206 106.506C462.309 -58.1879 378.341 57.0191 302.639 33.3254Z" stroke="#9E96C6"/>
<path id="Path 3 Copy" fill-rule="evenodd" clip-rule="evenodd" d="M312.105 71.2488C250.522 52.0091 187.2 19.9188 122.371 78.5323C57.5429 137.146 16.7857 188.491 43.1055 254.925C69.4253 321.359 176.86 279.98 208.076 339.356C239.292 398.732 170.704 452.621 200.274 505.465C229.843 558.31 252.58 592.178 347.608 558.578C442.636 524.978 433.875 439.484 506.139 389.42C578.403 339.356 656.588 264.408 549.291 130.673C441.994 -3.06168 373.688 90.4885 312.105 71.2488Z" stroke="#9E96C6"/>
<path id="Path 3 Copy 2" fill-rule="evenodd" clip-rule="evenodd" d="M329.812 96.4174C279.85 80.719 228.478 54.5353 175.883 102.36C123.289 150.185 90.223 192.08 111.576 246.286C132.929 300.492 220.09 266.729 245.414 315.176C270.739 363.624 215.095 407.594 239.084 450.712C263.074 493.829 281.52 521.464 358.615 494.048C435.71 466.633 428.602 396.875 487.229 356.026C545.856 315.176 609.287 254.023 522.238 144.904C435.189 35.7846 379.773 112.116 329.812 96.4174Z" stroke="#9E96C6"/>
<path id="Path 3 Copy 5" fill-rule="evenodd" clip-rule="evenodd" d="M348.316 127.184C308.021 114.588 266.588 93.5806 224.169 131.952C181.75 170.323 155.082 203.936 172.304 247.427C189.525 290.918 259.822 263.829 280.247 302.7C300.672 341.57 255.794 376.848 275.142 411.443C294.49 446.038 309.367 468.21 371.546 446.213C433.725 424.217 427.992 368.248 475.276 335.474C522.56 302.7 573.718 253.635 503.512 166.086C433.305 78.5365 388.611 139.779 348.316 127.184Z" stroke="#9E96C6"/>
<path id="Path 3 Copy 4" fill-rule="evenodd" clip-rule="evenodd" d="M353.083 147.046C320.173 136.751 286.334 119.579 251.69 150.943C217.047 182.308 195.266 209.783 209.332 245.332C223.397 280.881 280.809 258.739 297.49 290.511C314.172 322.283 277.519 351.12 293.321 379.397C309.123 407.674 321.273 425.797 372.055 407.818C422.837 389.838 418.155 344.09 456.773 317.301C495.39 290.511 537.171 250.406 479.833 178.844C422.494 107.282 385.992 157.341 353.083 147.046Z" stroke="#9E96C6"/>
<path id="Path 3 Copy 3" fill-rule="evenodd" clip-rule="evenodd" d="M362.225 161.406C335.507 153.046 308.034 139.101 279.907 164.571C251.78 190.041 234.097 212.352 245.517 241.22C256.936 270.088 303.548 252.107 317.091 277.908C330.635 303.709 300.877 327.125 313.706 350.088C326.535 373.051 336.4 387.768 377.629 373.168C418.858 358.567 415.057 321.417 446.409 299.663C477.762 277.908 511.684 245.34 465.132 187.228C418.579 129.116 388.944 169.766 362.225 161.406Z" stroke="#9E96C6"/>
</g>
</svg>
